#!OML:ASF E:\EmotionMaleHayes\Project 1\Capture day 1\Session 1\Male1.ASF
:FULLY-SPECIFIED
:DEGREES
111
root -21.6423 16.5458 0.826052 74.0824 78.9059 76.3445
lowerback 9.02293 1.06067 -12.5943
upperback 4.19872 0.606434 -3.60016
thorax -0.683773 0.297841 3.21463
lowerneck -22.5277 1.87668 3.70708
upperneck 27.8044 1.74422 -0.374009
head 13.1304 1.22892 -0.437261
rclavicle -2.83268e-015 -1.55052e-014
rhumerus -37.159 -0.85829 -85.2471
rradius 30.0169
rwrist 1.80197
rhand -12.1509 -27.4245
rfingers 7.12502
rthumb 13.9115 -56.9392
lclavicle -2.83268e-015 -1.55052e-014
lhumerus -23.4634 -10.3709 87.8683
lradius 35.5434
lwrist -0.355347
lhand -17.7176 -27.2375
lfingers 7.12502
lthumb 8.54284 2.56968
rfemur -21.3573 -3.56465 7.5878
rtibia 66.6929
rfoot -15.2196 -1.36878
rtoes 11.5562
lfemur -1.86052 1.27186 -35.8629
ltibia 21.5108
lfoot -20.0068 6.75465
ltoes -13.2469
112
root -21.5334 16.5312 0.813822 73.6586 78.9751 75.9669
lowerback 9.01503 1.10414 -12.5903
upperback 4.25154 0.669271 -3.47172
thorax -0.633994 0.321761 3.34172
lowerneck -22.7039 1.82691 3.63887
upperneck 27.9337 1.69922 -0.397897
head 13.2182 1.1996 -0.441312
rclavicle -2.88238e-015 -2.5842e-014
rhumerus -37.5659 -0.959719 -84.8976
rradius 30.058
rwrist 1.766
rhand -11.9924 -27.8241
rfingers 7.12502
rthumb 14.0643 -57.3282
lclavicle -2.88238e-015 -2.5842e-014
lhumerus -22.779 -11.328 88.0164
lradius 36.2476
lwrist 0.227273
lhand -17.6586 -27.6716
lfingers 7.12502
lthumb 8.59978 2.1333
rfemur -22.4982 -3.56067 7.99327
rtibia 66.0113
rfoot -16.1776 -1.6642
rtoes 10.8143
lfemur -1.22483 1.40888 -35.8284
ltibia 21.1952
lfoot -20.3054 6.74112
ltoes -13.1608
113
root -21.4267 16.5239 0.805461 73.7532 79.3245 76.0471
lowerback 8.51293 1.08195 -12.4263
upperback 4.67098 0.781634 -3.19614
thorax 0.0700313 0.324789 3.5397
lowerneck -23.1776 1.73355 3.34676
upperneck 27.7933 1.59956 -0.285975
head 13.2502 1.13109 -0.364435
rclavicle 5.96354e-016 1.74931e-014
rhumerus -37.4026 -1.04491 -84.4678
rradius 30.1898
rwrist 1.54022
rhand -11.8048 -28.2081
rfingers 7.12502
rthumb 14.2451 -57.6996
lclavicle 5.96354e-016 1.74931e-014
lhumerus -21.4855 -12.199 88.1799
lradius 36.8828
lwrist 0.632724
lhand -17.585 -27.9258
lfingers 7.12502
lthumb 8.67088 1.8761
rfemur -23.5282 -3.63071 8.74468
rtibia 65.0653
rfoot -16.7857 -2.25284
rtoes 9.61019
lfemur -0.639579 1.70991 -35.4486
ltibia 20.8958
lfoot -20.4727 6.37807
ltoes -13.3107
114
root -21.3158 16.5167 0.795835 74.7709 79.3823 76.989
lowerback 8.47865 1.05673 -12.463
upperback 4.65433 0.746939 -3.12249
thorax 0.0756778 0.304919 3.6406
lowerneck -23.2873 1.65306 3.26197
upperneck 27.9049 1.47941 -0.178639
head 13.3149 1.08666 -0.328336
rclavicle -5.26779e-015 -4.31363e-014
rhumerus -37.8491 -1.29401 -84.1855
rradius 30.2442
rwrist 1.46035
rhand -11.8662 -28.1772
rfingers 7.12502
rthumb 14.1859 -57.6728
lclavicle -5.26779e-015 -4.31363e-014
lhumerus -21.0108 -13.2081 88.2504
lradius 37.7386
lwrist 1.19468
lhand -17.3545 -27.4086
lfingers 7.12502
lthumb 8.89325 2.38395
rfemur -24.5565 -3.8096 9.08846
rtibia 63.9134
rfoot -17.2151 -2.53683
rtoes 8.26782
lfemur -0.141303 2.00429 -35.4007
ltibia 20.653
lfoot -20.7386 5.77546
ltoes -13.189
115
root -21.2029 16.508 0.787442 76.3378 79.3115 78.4429
lowerback 8.45833 0.949213 -12.743
upperback 4.5332 0.571671 -3.07502
thorax -0.0132762 0.219883 3.85896
lowerneck -23.1064 1.68951 3.4117
upperneck 27.9912 1.51711 -0.262007
head 13.3168 1.11153 -0.379924
rclavicle 3.72721e-015 -2.42517e-014
rhumerus -38.3676 -1.34615 -84.0149
rradius 30.1545
rwrist 1.57027
rhand -12.0651 -28.0191
rfingers 7.12502
rthumb 13.9943 -57.5281
lclavicle 3.72721e-015 -2.42517e-014
lhumerus -20.6852 -13.9363 88.2247
lradius 38.5428
lwrist 1.834
lhand -17.3126 -27.0648
lfingers 7.12502
lthumb 8.9337 2.72608
rfemur -25.5148 -4.01369 9.23145
rtibia 62.5586
rfoot -17.7105 -2.52395
rtoes 9.28804
lfemur 0.391321 2.14149 -35.5292
ltibia 20.2584
lfoot -20.9436 5.38897
ltoes -14.0159
